<?xml version="1.0" encoding="UTF-8" standalone="no"?>
<svg
   xmlns:dc="http://purl.org/dc/elements/1.1/"
   xmlns:cc="http://creativecommons.org/ns#"
   xmlns:rdf="http://www.w3.org/1999/02/22-rdf-syntax-ns#"
   xmlns:svg="http://www.w3.org/2000/svg"
   xmlns="http://www.w3.org/2000/svg"
   xmlns:sodipodi="http://sodipodi.sourceforge.net/DTD/sodipodi-0.dtd"
   xmlns:inkscape="http://www.inkscape.org/namespaces/inkscape"
   sodipodi:docname="bebob2.svg"
   inkscape:version="1.0 (4035a4fb49, 2020-05-01)"
   id="svg8"
   version="1.1"
   viewBox="0 0 285.74999 285.75001"
   height="1080"
   width="1080">
  <defs
     id="defs2" />
  <sodipodi:namedview
     units="px"
     inkscape:window-maximized="1"
     inkscape:window-y="-8"
     inkscape:window-x="-8"
     inkscape:window-height="1009"
     inkscape:window-width="1920"
     showgrid="false"
     inkscape:document-rotation="0"
     inkscape:current-layer="g867"
     inkscape:document-units="mm"
     inkscape:cy="450.97524"
     inkscape:cx="24.691016"
     inkscape:zoom="0.5"
     inkscape:pageshadow="2"
     inkscape:pageopacity="0.0"
     borderopacity="1.0"
     bordercolor="#666666"
     pagecolor="#ffffff"
     id="base" />
  <metadata
     id="metadata5">
    <rdf:RDF>
      <cc:Work
         rdf:about="">
        <dc:format>image/svg+xml</dc:format>
        <dc:type
           rdf:resource="http://purl.org/dc/dcmitype/StillImage" />
        <dc:title></dc:title>
      </cc:Work>
    </rdf:RDF>
  </metadata>
  <g
     id="layer1"
     inkscape:groupmode="layer"
     inkscape:label="Layer 1">
    <g
       transform="matrix(0.38989217,0,0,0.38989217,86.373754,91.790993)"
       id="g847">
      <g
         transform="translate(272.82741,-63.065633)"
         id="g867">
        <path
           d="m 999.67089,606.34268 c -8.20016,0.0163 -17.37288,0.9124 -26.21648,2.63225 -3.69576,0.71873 -10.18331,1.79543 -14.41773,2.39235 -9.31096,1.31257 -15.63549,3.24612 -26.35696,8.05846 -11.5173,5.16955 -12.8634,6.10402 -20.37278,14.15928 -3.69576,3.96443 -7.60416,7.98926 -8.68537,8.9425 -6.876,6.06224 -8.90905,8.17965 -11.0141,11.47533 -2.9481,4.61561 -15.43494,19.23306 -20.73991,24.27874 -2.78158,2.64563 -5.98956,4.75254 -10.66419,7.00476 -7.08789,3.41492 -19.19453,11.78356 -22.50932,15.55891 -1.09181,1.2435 -2.77891,3.83754 -3.74956,5.76418 -0.97066,1.92662 -2.35076,4.33263 -3.06699,5.348 -2.11913,3.00418 -6.54828,14.54912 -7.2473,18.88964 -0.35635,2.21277 -0.88419,4.23232 -1.17166,4.48914 -0.28747,0.25682 -4.15104,3.50174 -8.58596,7.2102 -10.21962,8.54559 -10.65239,8.98133 -15.2196,15.35347 -4.45958,6.22197 -5.89886,9.22816 -8.31823,17.36278 -2.22897,7.49444 -2.21824,15.59087 0.0239,17.75775 0.73677,0.71206 9.35299,4.97766 19.14678,9.47928 9.79377,4.50162 18.19644,8.56074 18.6736,9.01937 0.62344,0.59925 0.68752,1.30922 0.22532,2.52489 -1.93495,5.08929 -4.80896,33.47321 -4.79531,47.36461 l 0.008,6.82715 -4.44407,3.49244 c -4.16061,3.2697 -4.42209,3.63238 -4.08755,5.69393 0.416,2.56352 -0.77953,3.88513 -8.77152,9.69532 -2.67943,1.94796 -4.87218,3.9056 -4.87218,4.34998 0,1.10647 -3.99078,4.79657 -10.41501,9.62905 -13.31499,10.01589 -19.34559,19.99085 -22.29329,36.87537 -1.78805,10.24207 -1.59138,34.41099 0.38437,47.30629 1.82694,11.92403 3.90187,20.8605 7.10151,30.5744 2.66841,8.1011 10.89677,25.5498 12.88424,27.3219 0.68797,0.6133 6.84497,3.7413 13.68214,6.9517 6.83716,3.2104 17.90269,8.6813 24.59021,12.1566 6.68753,3.4754 12.97684,6.3182 13.97637,6.3182 2.0681,0 4.78506,1.2858 8.67477,4.1035 1.5527,1.1247 3.56422,1.9534 4.7688,1.9655 1.14567,0.012 3.29182,0.7662 4.77013,1.6767 1.47829,0.9105 3.12493,1.6561 3.65943,1.658 0.5345,0 2.15997,0.827 3.61172,1.8331 2.28043,1.5803 3.29093,1.8261 7.42756,1.8078 7.17454,-0.032 9.59974,-0.7146 12.74376,-3.5878 2.55162,-2.3319 3.23578,-2.5944 7.83578,-3.022 6.32568,-0.5879 10.31463,-2.4434 12.56482,-5.8437 0.94866,-1.4335 1.9748,-2.607 2.28102,-2.607 0.51546,0 1.18498,2.0186 2.34067,7.0564 0.79354,3.4593 15.38375,31.7695 22.27206,43.2161 7.20011,11.9648 15.81216,24.3847 22.68825,32.7202 6.00482,7.2793 18.38659,19.7495 24.53587,24.7122 15.03596,12.1344 32.3263,20.4367 47.0372,22.5862 2.7719,0.405 5.7959,0.869 6.7198,1.0311 3.0657,0.5381 19.0613,-0.2428 24.8619,-1.214 31.8852,-5.3386 64.4998,-24.2601 95.0818,-55.1633 14.5872,-14.7404 29.3922,-33.5879 34.214,-43.5554 2.166,-4.4777 2.5232,-6.1762 4.6972,-22.3171 1.9754,-14.6663 5.6121,-43.6612 7.6197,-60.7579 0.2786,-2.3719 0.8087,-4.4016 1.1783,-4.5116 0.3696,-0.1101 1.4889,1.1447 2.4878,2.7899 2.0419,3.3632 5.1078,5.5209 8.5992,6.0518 1.2935,0.1967 5.308,0.9893 8.9213,1.7602 8.8285,1.8835 18.4583,1.6001 22.28,-0.6548 2.2808,-1.3457 2.9641,-1.4484 5.7072,-0.8602 2.052,0.4401 4.1203,0.4434 6.0584,0.01 1.9666,-0.4418 3.5988,-0.433 4.9173,0.027 1.0852,0.3783 3.8646,0.8805 6.1764,1.1174 l 4.2028,0.4307 3.6263,-3.2817 c 1.9945,-1.805 5.0299,-4.2883 6.745,-5.519 5.4215,-3.8904 7.8318,-10.055 12.9439,-33.10325 3.8841,-17.51193 4.7477,-27.14769 4.2121,-46.95903 -0.7624,-28.20308 -4.9531,-55.3381 -11.5138,-74.53803 -0.9377,-2.74416 -1.7058,-6.00054 -1.7058,-7.2367 0,-4.27207 -9.3987,-20.83334 -13.7789,-24.27873 -0.9284,-0.7304 -2.1472,-2.62734 -2.7077,-4.21611 -1.3478,-3.82 -2.8278,-5.36449 -4.9332,-5.14786 -1.2986,0.13362 -1.932,-0.27763 -2.6322,-1.7111 -0.5071,-1.03823 -1.6528,-2.22127 -2.5461,-2.62827 -1.1504,-0.52418 -1.6237,-1.2843 -1.6237,-2.60707 0,-1.6659 -0.2671,-1.88955 -2.4732,-2.07559 -2.4089,-0.20315 -2.6102,-0.44283 -7.7986,-9.26191 -2.9295,-4.97928 -8.4693,-13.09131 -12.3104,-18.02681 -3.8411,-4.93549 -6.9835,-9.44419 -6.9835,-10.01872 0,-0.57455 -0.5787,-1.98753 -1.2843,-3.13988 -2.1554,-3.51953 -12.5171,-23.41517 -20.6764,-39.6998 -7.3688,-14.70706 -7.7902,-15.77463 -8.9954,-22.79959 -1.9888,-11.59169 -7.2483,-21.6037 -16.4469,-31.31 -5.9624,-6.29137 -11.0866,-12.91781 -13.2183,-17.0924 -1.8941,-3.70928 -7.5337,-9.10188 -12.2865,-11.74837 -2.2175,-1.23474 -7.4706,-4.52687 -11.6741,-7.31623 -7.1958,-4.7749 -7.7571,-5.31089 -9.5761,-9.15588 -1.0626,-2.24613 -1.9321,-4.75491 -1.9324,-5.57465 -4e-4,-0.87308 -1.8187,-3.57543 -4.3911,-6.52496 -5.1132,-5.8628 -7.4607,-6.81161 -11.6423,-4.70518 -2.2257,1.12119 -4.6459,1.2401 -26.972,1.32938 -18.6567,0.0746 -26.4451,0.36282 -32.5453,1.20611 -6.6392,0.91782 -9.7854,0.99733 -18.2813,0.45727 -10.1598,-0.64583 -10.3139,-0.68019 -15.4992,-3.38773 -3.9045,-2.03873 -6.7773,-2.98232 -11.2858,-3.7098 -3.9393,-0.63565 -8.5089,-0.94285 -13.42901,-0.93309 z m 213.47731,215.37537 c 1.2293,0.13724 13.1967,11.17577 15.7962,14.62582 1.5528,2.0609 1.4809,3.12 -0.212,3.12 -2.7288,0 -11.1391,6.78149 -16.5649,13.35741 -0.6467,0.78386 -1.4029,1.42614 -1.6806,1.42614 -0.2778,0 -1.2159,-1.34132 -2.0849,-2.97951 -0.8691,-1.63819 -2.0034,-3.1406 -2.5196,-3.33869 -0.5162,-0.19809 -0.9384,-0.99388 -0.9384,-1.76941 0,-1.5553 7.2889,-23.47773 8.1194,-24.42055 0.017,-0.0189 0.045,-0.0256 0.085,-0.0212 z m -349.58694,25.80957 c 0.22848,0 1.53881,1.3424 2.91059,2.98348 1.61598,1.93324 2.49308,3.66888 2.49308,4.92918 0,1.06984 0.90477,6.60545 2.01064,12.30239 2.73953,14.11276 2.7674,13.88464 -1.33865,10.98097 -1.29353,-0.91474 -3.97619,-2.17603 -5.96167,-2.80323 l -3.60907,-1.13984 0.44268,-7.74699 c 0.44621,-7.7922 2.27923,-19.50596 3.0524,-19.50596 z m 247.51244,46.2579 c 2.3757,-0.0221 4.381,0.11927 5.8676,0.44136 1.2804,0.27743 4.0407,1.36474 6.1326,2.41621 6.3449,3.18913 19.3787,11.95729 19.3787,13.03666 0,1.67709 -5.0638,6.05923 -9.9007,8.56741 -6.7573,3.50392 -14.1328,5.64592 -23.3616,6.78607 -1.4783,0.18263 -4.3505,-0.10355 -6.3832,-0.6362 -2.0326,-0.53266 -11.0153,-3.4017 -19.9605,-6.37519 -12.2816,-4.08248 -16.3602,-5.70968 -16.6577,-6.64689 -1.5773,-4.9697 5.2581,-10.21079 17.4993,-13.41706 9.7968,-2.566 20.2582,-4.10595 27.3855,-4.17237 z m -162.20684,11.0141 c 5.42799,0.004 11.41934,0.74805 17.35615,2.18559 10.80851,2.61717 10.88298,2.66524 15.54169,10.19103 2.25332,3.64008 4.10189,7.28622 4.10874,8.10219 0.009,1.04717 -0.8486,1.988 -2.91588,3.19952 -3.59105,2.10449 -18.67703,7.84774 -26.54783,10.1062 -9.88899,2.83756 -23.69548,4.37613 -29.32057,3.26844 -7.19454,-1.41676 -9.14177,-1.96095 -11.78548,-3.29495 -5.99139,-3.02326 -10.77617,-10.04798 -9.73641,-14.29448 2.0438,-8.34705 17.27121,-16.31993 36.30544,-19.0076 2.17624,-0.30729 4.52689,-0.45795 6.99415,-0.45594 z m 155.49764,180.51858 c 3.4232,0.011 5.9064,0.3235 6.8125,0.9861 4.5154,3.3017 -7.4914,23.2014 -17.5575,29.1006 -4.2459,2.4882 -17.1091,7.4711 -23.4027,9.0644 -6.2152,1.5734 -24.3316,2.1902 -37.053,1.2618 -4.1179,-0.3006 -8.5034,-0.7634 -9.7443,-1.0285 -3.5255,-0.7534 -15.9407,-6.1139 -21.4543,-9.2633 -6.44533,-3.6815 -23.47027,-18.1225 -23.47027,-19.9075 0,-1.2372 1.24774,-0.8129 4.80325,1.6329 5.51228,3.7917 9.42452,4.6305 21.40262,4.5872 16.0134,-0.058 23.5689,-1.4199 70.2199,-12.6563 9.8339,-2.3686 21.9128,-3.8016 29.4438,-3.7774 z"
           style="fill:#373e5d;fill-opacity:1;stroke-width:0.61019"
           id="path851" />
        <path
           id="path883"
           d="M 960.10833,431.99134 C 947.26555,431.12956 928.1222,428.7048 915.8696,426.3879 863.39511,416.46526 814.03562,394.04664 772.47507,361.25952 723.61257,322.71185 686.37248,270.46857 665.85651,211.6867 657.6696,188.22981 651.9648,163.14213 649.5529,139.98943 c -0.52441,-5.03407 -1.28121,-10.93764 -1.68179,-13.11907 -0.99037,-5.39342 -0.99037,-42.201357 0,-47.594777 0.40058,-2.18141 1.15738,-8.08502 1.68179,-13.11907 3.01222,-28.915461 11.17325,-60.7000028 22.87426,-89.087657 4.82081,-11.695744 15.50656,-32.77621 22.35027,-44.091832 20.8228,-34.429094 47.35485,-64.326414 79.23729,-89.287584 27.35413,-21.41589 60.44025,-39.44752 93.64991,-51.0383 23.45689,-8.18691 48.54457,-13.89171 71.69727,-16.30361 5.03406,-0.52441 10.93764,-1.28123 13.11907,-1.6818 5.39341,-0.99036 42.20136,-0.99036 47.59473,0 2.1815,0.40057 8.085,1.15739 13.1191,1.6818 49.9367,5.20207 101.4534,23.8886 144.6149,52.45586 42.378,28.04865 77.0632,64.81653 102.9124,109.091775 5.5415,9.491622 15.169,28.932035 19.4,39.173691 11.6763,28.2636612 19.8679,60.156778 22.8817,89.087657 0.5244,5.03405 1.2812,10.93766 1.6818,13.11907 0.9903,5.39342 0.9903,42.201357 0,47.594777 -0.4006,2.18143 -1.1574,8.085 -1.6818,13.11907 -5.2061,49.97485 -23.8996,101.49019 -52.4769,144.61491 -28.1914,42.54242 -64.7492,77.03616 -109.0707,102.91241 -9.4917,5.54151 -28.9321,15.16902 -39.1737,19.40001 -28.2735,11.6803 -60.2173,19.88339 -89.0877,22.87734 -5.0341,0.52208 -10.663,1.21862 -12.5089,1.54787 -4.39359,0.7838 -31.99256,1.22545 -40.57757,0.64937 z"
           style="fill:#373e5d;fill-opacity:1;stroke-width:0.61019" />
        <path
           id="path885"
           d="m 981.91023,455.53412 c -4.66006,-0.13183 -7.43058,-0.46512 -7.1839,-0.86427 0.23708,-0.38362 -0.92198,-0.65233 -2.82991,-0.65616 -7.17433,-0.0141 -29.1365,-2.92383 -43.54891,-5.76923 -61.22574,-12.08751 -116.74338,-38.82592 -164.96561,-79.4507 -10.78808,-9.08841 -32.01326,-30.31359 -41.10167,-41.10167 -41.64385,-49.43186 -69.19958,-107.76098 -80.52175,-170.44596 -2.10264,-11.64123 -4.70352,-32.68873 -4.70421,-38.06856 -2.3e-4,-1.77731 -0.25644,-3.07323 -0.56936,-2.87983 -0.88027,0.54403 -1.53772,-21.768597 -1.02697,-34.854117 0.25192,-6.45438 0.71406,-11.57701 1.02697,-11.38362 0.31292,0.1934 0.56913,-1.10252 0.56936,-2.87983 6.8e-4,-5.37983 2.60157,-26.427336 4.70421,-38.068559 11.32217,-62.684989 38.8779,-121.014101 80.52175,-170.445964 9.08841,-10.78809 30.31359,-32.01327 41.10167,-41.10168 49.45111,-41.66007 107.73655,-69.19517 170.44597,-80.52175 11.64122,-2.10264 32.68872,-4.70352 38.06855,-4.70421 1.77731,-2.3e-4 3.07323,-0.25644 2.87983,-0.56936 -0.19339,-0.31291 4.92924,-0.77505 11.38362,-1.02697 13.08553,-0.51075 35.39813,0.1467 34.85413,1.02697 -0.1934,0.31292 1.1029,0.56894 2.8807,0.56894 1.7778,0 8.3725,0.59121 14.6548,1.31379 56.8656,6.5406 111.5546,26.388 158.8856,57.66176 20.7379,13.70247 37.5746,27.5289 56.1857,46.14 13.509,13.50898 22.8145,24.12579 33.3441,38.04288 32.3127,42.708065 55.6804,95.144545 66.0147,148.135235 2.9272,15.009323 5.7261,36.394148 5.7606,44.013228 0.01,2.21564 0.2396,3.34452 0.5731,2.81872 0.3146,-0.49616 0.7561,4.24593 1.0166,10.91932 0.5152,13.19962 -0.1528,35.874127 -1.0166,34.512017 -0.3335,-0.5258 -0.5631,0.60308 -0.5731,2.81872 -0.035,7.69611 -2.8659,29.25505 -5.7795,44.01322 -12.0764,61.1697 -38.9134,116.89627 -79.4446,164.96561 -9.0962,10.78802 -30.3197,32.01156 -41.1078,41.10781 -48.0693,40.53115 -103.7959,67.36814 -164.9656,79.44456 -14.4124,2.8454 -36.3745,5.75485 -43.5489,5.76923 -1.7773,0.007 -3.0736,0.26179 -2.8807,0.57385 0.375,0.60678 -18.8327,1.54362 -26.75307,1.30481 -2.62041,-0.079 -8.17782,-0.24016 -12.3498,-0.35823 z m 40.84737,-62.24204 c 31.8851,-5.33857 64.5,-24.26085 95.082,-55.16411 14.5871,-14.7404 29.3921,-33.58738 34.2139,-43.5549 2.1661,-4.47765 2.5237,-6.17653 4.6977,-22.31748 1.9754,-14.66627 5.6113,-43.66032 7.619,-60.75698 0.2785,-2.3719 0.8088,-4.4026 1.1784,-4.51268 0.3695,-0.11007 1.4892,1.14598 2.4881,2.79123 2.0419,3.36314 5.1078,5.5208 8.5992,6.05175 1.2935,0.19671 5.3082,0.98838 8.9215,1.75927 8.8285,1.88354 18.4586,1.60088 22.2803,-0.65397 2.2808,-1.34573 2.9636,-1.44868 5.7067,-0.8604 2.052,0.44008 4.1208,0.44246 6.059,0.007 1.9666,-0.44188 3.5977,-0.43306 4.9162,0.0265 1.0852,0.3783 3.8646,0.88161 6.1764,1.11847 l 4.2033,0.43063 3.6262,-3.28184 c 1.9944,-1.805 5.0294,-4.28877 6.7445,-5.51946 5.4215,-3.89039 7.8318,-10.05455 12.9439,-33.10284 3.8841,-17.51193 4.7487,-27.14834 4.2131,-46.95968 -0.7624,-28.20308 -4.9542,-55.337077 -11.5148,-74.537001 -0.9377,-2.74416 -1.7049,-6.0008 -1.7049,-7.23696 0,-4.27207 -9.3996,-20.833448 -13.7797,-24.278837 -0.9285,-0.730398 -2.1469,-2.627899 -2.7074,-4.216669 -1.3478,-3.820005 -2.8272,-5.363855 -4.9326,-5.147229 -1.2986,0.133625 -1.932,-0.278251 -2.6322,-1.711725 -0.5071,-1.038228 -1.6529,-2.2206918 -2.5462,-2.6276968 -1.1504,-0.524174 -1.6241,-1.284689 -1.6241,-2.607465 0,-1.665897 -0.2669,-1.889961 -2.473,-2.076 -2.409,-0.203159 -2.6107,-0.442712 -7.7992,-9.261787 -2.9294,-4.97928 -8.469,-13.0913682 -12.3101,-18.0268642 -3.8411,-4.935496 -6.9839,-9.443706 -6.9839,-10.018243 0,-0.574544 -0.5774,-1.987456 -1.2831,-3.13981 -2.1554,-3.519526 -12.5175,-23.414755 -20.6768,-39.699394 -7.3688,-14.707057 -7.7901,-15.774731 -8.9954,-22.799686 -1.9888,-11.591693 -7.2484,-21.604653 -16.447,-31.310953 -5.9624,-6.29137 -11.0865,-12.91707 -13.2182,-17.09166 -1.8941,-3.70928 -7.5341,-9.10227 -12.2869,-11.74876 -2.2174,-1.23474 -7.471,-4.52719 -11.6746,-7.31655 -7.1958,-4.7749 -7.7558,-5.31044 -9.5748,-9.15543 -1.0626,-2.24613 -1.9323,-4.75457 -1.9326,-5.57431 -3e-4,-0.87308 -1.8195,-3.57604 -4.3919,-6.52557 -5.1132,-5.8628 -7.4607,-6.8115 -11.6424,-4.70507 -2.2257,1.12119 -4.6454,1.24048 -26.9715,1.32976 -18.6567,0.0746 -26.4457,0.36339 -32.5458,1.20668 -6.6393,0.91782 -9.7854,0.99634 -18.2812,0.45628 -10.15986,-0.64583 -10.31387,-0.67949 -15.49916,-3.38703 -3.90445,-2.03873 -6.77644,-2.98305 -11.28495,-3.71054 -10.50484,-1.69505 -25.49577,-1.05252 -39.64551,1.69925 -3.69576,0.71873 -10.1841,1.79518 -14.41852,2.3921 -9.31096,1.31257 -15.63567,3.24635 -26.35715,8.05869 -11.51729,5.16955 -12.8631,6.10497 -20.37248,14.16023 -3.69576,3.96443 -7.60419,7.98797 -8.68539,8.94121 -6.876,6.06224 -8.9093,8.18087 -11.01435,11.47656 -2.94811,4.6156 -15.43466,19.23269 -20.73962,24.27837 -2.78159,2.64563 -5.98891,4.75246 -10.66354,7.00468 -7.08789,3.41493 -19.19494,11.78323 -22.50973,15.55858 -1.09181,1.24349 -2.77928,3.837243 -3.74993,5.76388 -0.97065,1.92663 -2.35082,4.333717 -3.06705,5.349079 -2.11913,3.004188 -6.54847,14.547991 -7.24749,18.888515 -0.35635,2.212763 -0.88312,4.233326 -1.17059,4.490149 -0.28747,0.256822 -4.15125,3.501141 -8.58617,7.209602 -10.21962,8.545588 -10.65212,8.981923 -15.21933,15.354059 -4.45957,6.221972 -5.89956,9.227262 -8.31894,17.361887 -2.22897,7.494438 -2.21799,15.591642 0.0241,17.758524 0.73677,0.7120602 9.35268,4.9777892 19.14646,9.47940824 9.79378,4.50161196 18.19728,8.56000796 18.67444,9.01864596 0.62344,0.599245 0.68658,1.309921 0.22438,2.5255928 -1.93495,5.08928 -4.80807,33.473246 -4.79442,47.364641 l 0.007,6.82623 -4.44407,3.49246 c -4.16061,3.2697 -4.42127,3.63291 -4.08673,5.69446 0.416,2.56352 -0.78012,3.88561 -8.77211,9.69581 -2.67943,1.94796 -4.87169,3.90533 -4.87169,4.34971 0,1.10647 -3.99111,4.79609 -10.41534,9.62857 -13.31498,10.015877 -19.34544,19.990977 -22.29313,36.875497 -1.78806,10.24207 -1.59199,34.41149 0.38376,47.30679 1.82694,11.92403 3.90286,20.86021 7.1025,30.57407 2.66841,8.10112 10.8966,25.54958 12.88407,27.32161 0.68796,0.61338 6.84489,3.74194 13.68206,6.95234 6.83716,3.2104 17.90283,8.68056 24.59035,12.15591 6.68754,3.47535 12.97696,6.31882 13.97649,6.31882 2.0681,0 4.78489,1.28488 8.67459,4.10257 1.55271,1.12477 3.56354,1.95389 4.76812,1.96602 1.14567,0.0116 3.29256,0.76594 4.77087,1.67645 1.4783,0.91051 3.12515,1.65703 3.65965,1.65893 0.5345,0.002 2.15962,0.82659 3.61138,1.83265 2.28042,1.58034 3.29102,1.82634 7.42765,1.80808 7.17453,-0.0317 9.59989,-0.71447 12.74391,-3.58773 2.55162,-2.33185 3.23519,-2.5956 7.83519,-3.02314 6.32568,-0.58795 10.31466,-2.44303 12.56485,-5.84328 0.94866,-1.43353 1.97539,-2.60642 2.28161,-2.60642 0.51546,0 1.18479,2.01777 2.34047,7.05555 0.79355,3.45927 15.38331,31.76925 22.27163,43.2159 7.20011,11.96478 15.81254,24.38536 22.68864,32.72087 6.00481,7.27928 18.38606,19.75 24.53534,24.71263 15.03596,12.13442 32.32607,20.43677 47.03703,22.5862 2.77183,0.405 5.79564,0.86905 6.71958,1.03123 3.06567,0.53811 19.06187,-0.24326 24.86247,-1.21446 z m -27.98196,-70.96263 c -4.11798,-0.30054 -8.5025,-0.76338 -9.74339,-1.02853 -3.52548,-0.75334 -15.94062,-6.11365 -21.45425,-9.263 -6.44529,-3.68152 -23.47123,-18.12191 -23.47123,-19.9069 0,-1.23721 1.24772,-0.8131 4.80323,1.63267 5.51228,3.79177 9.42501,4.63033 21.40311,4.587 16.01338,-0.0579 23.56867,-1.41967 70.21959,-12.6561 14.3038,-3.44525 33.3567,-4.91254 36.2564,-2.79217 4.5154,3.30168 -7.4908,23.20262 -17.5569,29.10175 -4.2458,2.48822 -17.1096,7.46989 -23.4032,9.06318 -6.2152,1.57344 -24.3319,2.19052 -37.05336,1.2621 z M 888.702,138.45145 c -7.19454,-1.41676 -9.14253,-1.96142 -11.78624,-3.29542 -5.99139,-3.02326 -10.7762,-10.0481 -9.73644,-14.2946 2.0438,-8.34706 17.27152,-16.31905 36.30575,-19.00672 6.96398,-0.98333 15.71543,-0.36192 24.3508,1.72905 10.80851,2.61717 10.88188,2.66529 15.54058,10.19107 2.25332,3.64008 4.10255,7.28593 4.1094,8.1019 0.009,1.04717 -0.84909,1.98847 -2.91638,3.19999 -3.59105,2.10449 -18.67728,7.84707 -26.54808,10.10553 -9.88899,2.83756 -23.6943,4.37689 -29.31939,3.2692 z m 175.7169,-17.45574 c -2.0326,-0.53266 -11.0146,-3.40131 -19.9599,-6.3748 -12.2816,-4.08248 -16.3606,-5.71026 -16.6581,-6.64747 -1.5773,-4.96969 5.2581,-10.210377 17.4993,-13.416647 13.0623,-3.42134 27.3075,-5.01982 33.2536,-3.73145 1.2805,0.27743 4.0397,1.36472 6.1317,2.41619 6.3449,3.18913 19.3789,11.957717 19.3789,13.037097 0,1.67709 -5.064,6.05881 -9.901,8.56699 -6.7573,3.50392 -14.1321,5.64634 -23.3609,6.78649 -1.4783,0.18263 -4.3509,-0.10375 -6.3836,-0.6364 z M 831.24962,75.322843 c -1.29352,-0.91474 -3.97634,-2.17631 -5.96182,-2.80351 l -3.60997,-1.14035 0.44363,-7.74688 c 0.44621,-7.79221 2.27932,-19.506135 3.05249,-19.506135 0.22848,0 1.53779,1.342711 2.90957,2.983801 1.61598,1.93323 2.49414,3.66866 2.49414,4.92896 0,1.06984 0.90481,6.606304 2.01068,12.303244 2.73953,14.11276 2.76734,13.88454 -1.33872,10.98087 z M 1170.0138,47.867009 c -0.8691,-1.63819 -2.0025,-3.140611 -2.5187,-3.338701 -0.5162,-0.19809 -0.9386,-0.994688 -0.9386,-1.770222 0,-1.5553 7.2884,-23.477704 8.119,-24.420527 0.5322,-0.604198 13.1978,11.043288 15.8812,14.60463 1.5528,2.060894 1.4808,3.120283 -0.2121,3.120283 -2.7288,0 -11.1388,6.781947 -16.5646,13.357877 -0.6467,0.78386 -1.4032,1.42519 -1.681,1.42519 -0.2778,0 -1.2162,-1.34034 -2.0852,-2.97853 z"
           style="fill:#171717;stroke-width:0.671958;opacity:1" />
        <ellipse
           ry="361.92584"
           rx="361.89642"
           cy="93.696022"
           cx="997.29327"
           id="path888"
           style="opacity:0.264706;fill:#171717;fill-opacity:1;stroke:#000000;stroke-width:0.603974;stroke-linecap:round;stroke-linejoin:round;paint-order:stroke markers fill" />
        <g
           transform="translate(915.41209,-384.80917)"
           id="g930">
          <ellipse
             ry="361.92584"
             rx="361.89642"
             cy="580.01465"
             cx="-1042.7428"
             id="ellipse892"
             style="opacity:1;mix-blend-mode:normal;fill:#171717;fill-opacity:1;stroke:#000000;stroke-width:0.603974;stroke-linecap:round;stroke-linejoin:round;paint-order:stroke markers fill" />
          <path
             d="m -1077.8062,284.14451 c -8.2001,0.0163 -17.3728,0.9124 -26.2164,2.63225 -3.6958,0.71873 -10.1834,1.79543 -14.4178,2.39235 -9.3109,1.31257 -15.6355,3.24612 -26.3569,8.05846 -11.5173,5.16955 -12.8634,6.10402 -20.3728,14.15928 -3.6958,3.96443 -7.6042,7.98925 -8.6854,8.94249 -6.876,6.06224 -8.909,8.17965 -11.0141,11.47534 -2.9481,4.6156 -15.4349,19.23306 -20.7399,24.27874 -2.7816,2.64563 -5.9896,4.75253 -10.6642,7.00475 -7.0879,3.41493 -19.1945,11.78357 -22.5093,15.55891 -1.0918,1.2435 -2.7789,3.83754 -3.7496,5.76418 -0.9706,1.92663 -2.3507,4.33264 -3.067,5.348 -2.1191,3.00419 -6.5482,14.54912 -7.2473,18.88964 -0.3563,2.21277 -0.8841,4.23232 -1.1716,4.48915 -0.2875,0.25682 -4.1511,3.50173 -8.586,7.21019 -10.2196,8.54559 -10.6524,8.98133 -15.2196,15.35347 -4.4596,6.22197 -5.8988,9.22816 -8.3182,17.36278 -2.229,7.49444 -2.2182,15.59087 0.024,17.75775 0.7368,0.71206 9.353,4.97766 19.1468,9.47928 9.7937,4.50162 18.1964,8.56074 18.6736,9.01937 0.6234,0.59925 0.6875,1.30923 0.2253,2.52489 -1.935,5.08929 -4.809,33.47321 -4.7953,47.36461 l 0.01,6.82715 -4.4441,3.49244 c -4.1606,3.2697 -4.4221,3.63238 -4.0875,5.69393 0.416,2.56352 -0.7796,3.88513 -8.7716,9.69532 -2.6794,1.94796 -4.8721,3.9056 -4.8721,4.34998 0,1.10647 -3.9908,4.79657 -10.415,9.62905 -13.315,10.01589 -19.3456,19.99085 -22.2933,36.87542 -1.7881,10.242 -1.5914,34.4109 0.3843,47.3062 1.827,11.9241 3.9019,20.8606 7.1015,30.5744 2.6685,8.1012 10.8968,25.5499 12.8843,27.3219 0.688,0.6134 6.845,3.7413 13.6821,6.9517 6.8372,3.2104 17.9027,8.6813 24.5902,12.1566 6.6876,3.4754 12.9769,6.3182 13.9764,6.3182 2.0681,0 4.7851,1.2858 8.6748,4.1035 1.5527,1.1248 3.5642,1.9534 4.7688,1.9656 1.1456,0.012 3.2918,0.7661 4.7701,1.6766 1.4783,0.9105 3.1249,1.6562 3.6594,1.6581 0.5345,0 2.16,0.827 3.6118,1.833 2.2804,1.5804 3.2909,1.8261 7.4275,1.8079 7.1746,-0.032 9.5998,-0.7146 12.7438,-3.5879 2.5516,-2.3319 3.2358,-2.5944 7.8358,-3.0219 6.3256,-0.588 10.3146,-2.4435 12.5648,-5.8437 0.9486,-1.4336 1.9748,-2.6071 2.281,-2.6071 0.5155,0 1.185,2.0187 2.3407,7.0564 0.7935,3.4593 15.3837,31.7695 22.272,43.2161 7.2001,11.9648 15.8122,24.3848 22.6883,32.7203 6.0048,7.2793 18.3866,19.7495 24.5358,24.7121 15.036,12.1344 32.3263,20.4368 47.0373,22.5862 2.7718,0.405 5.7958,0.869 6.7198,1.0312 3.0656,0.5381 19.0613,-0.2429 24.8619,-1.2141 31.88519,-5.3386 64.49983,-24.26 95.08177,-55.1633 14.58719,-14.7404 29.39221,-33.5878 34.21398,-43.5554 2.16604,-4.4776 2.52319,-6.1762 4.69725,-22.3171 1.97542,-14.6663 5.61207,-43.6612 7.61973,-60.7578 0.27857,-2.3719 0.80869,-4.4016 1.17826,-4.5117 0.36957,-0.1101 1.48893,1.1447 2.48777,2.79 2.04193,3.3631 5.10787,5.5208 8.59924,6.0518 1.29349,0.1967 5.30799,0.9892 8.9213,1.7601 8.82853,1.8835 18.45829,1.6001 22.28,-0.6547 2.2808,-1.3458 2.96409,-1.4485 5.70722,-0.8602 2.05197,0.4401 4.12022,0.4434 6.05839,0.01 1.9666,-0.4419 3.59879,-0.4331 4.91725,0.026 1.08523,0.3783 3.8646,0.8804 6.17641,1.1173 l 4.20281,0.4307 3.62634,-3.2816 c 1.99442,-1.8051 5.0299,-4.2883 6.74494,-5.519 5.42152,-3.8904 7.83179,-10.055 12.94394,-33.1033 3.88407,-17.5119 4.74773,-27.1477 4.21211,-46.959 -0.76241,-28.20312 -4.95315,-55.33814 -11.51378,-74.53807 -0.9377,-2.74416 -1.70581,-6.00054 -1.70581,-7.2367 0,-4.27207 -9.39877,-20.83334 -13.7789,-24.27873 -0.92847,-0.7304 -2.14725,-2.62734 -2.70778,-4.21611 -1.34778,-3.82 -2.82775,-5.36448 -4.93313,-5.14786 -1.29865,0.13362 -1.93206,-0.27762 -2.63224,-1.7111 -0.50713,-1.03823 -1.65282,-2.22127 -2.54613,-2.62827 -1.15038,-0.52418 -1.62364,-1.2843 -1.62364,-2.60707 0,-1.6659 -0.2671,-1.88954 -2.47318,-2.07558 -2.40898,-0.20316 -2.61019,-0.44284 -7.79868,-9.26192 -2.92941,-4.97928 -8.46921,-13.09131 -12.31033,-18.02681 -3.84111,-4.93549 -6.98354,-9.44419 -6.98354,-10.01872 0,-0.57454 -0.57864,-1.98752 -1.28433,-3.13988 -2.15539,-3.51952 -12.51703,-23.41517 -20.67632,-39.6998 -7.36885,-14.70705 -7.7902,-15.77463 -8.99547,-22.79958 -1.98879,-11.59169 -7.24827,-21.6037 -16.44691,-31.31 -5.96237,-6.29138 -11.0866,-12.91781 -13.2183,-17.0924 -1.89406,-3.70928 -7.53369,-9.10189 -12.28645,-11.74838 -2.21748,-1.23474 -7.47057,-4.52686 -11.67413,-7.31622 -7.19581,-4.7749 -7.75708,-5.31089 -9.57609,-9.15588 -1.06256,-2.24613 -1.93212,-4.75491 -1.9324,-5.57465 -3.4e-4,-0.87308 -1.81866,-3.57543 -4.39105,-6.52496 -5.11324,-5.8628 -7.46074,-6.81161 -11.64238,-4.70518 -2.22569,1.12119 -4.64581,1.2401 -26.97196,1.32938 -18.65678,0.0746 -26.44518,0.36282 -32.54528,1.20611 -6.6393,0.91782 -9.7855,0.99733 -18.2813,0.45727 -10.1598,-0.64583 -10.314,-0.68019 -15.4993,-3.38773 -3.9044,-2.03873 -6.7773,-2.98232 -11.2858,-3.7098 -3.9393,-0.63565 -8.5089,-0.94285 -13.429,-0.93309 z m 213.47743,215.37536 c 1.2293,0.13724 13.19666,11.17578 15.79619,14.62582 1.55279,2.0609 1.48086,3.12001 -0.21206,3.12001 -2.72881,0 -11.13912,6.78148 -16.56492,13.3574 -0.64664,0.78386 -1.40281,1.42614 -1.68057,1.42614 -0.27782,0 -1.21586,-1.34132 -2.08488,-2.97951 -0.86909,-1.63819 -2.00338,-3.1406 -2.5196,-3.33869 -0.51621,-0.19809 -0.93837,-0.99388 -0.93837,-1.76941 0,-1.5553 7.28884,-23.47773 8.11939,-24.42055 0.0167,-0.0189 0.0452,-0.0256 0.0848,-0.0212 z m -349.58703,25.80957 c 0.2285,0 1.5388,1.3424 2.9106,2.98348 1.616,1.93324 2.4931,3.66888 2.4931,4.92918 0,1.06984 0.9047,6.60545 2.0106,12.30239 2.7395,14.11276 2.7674,13.88464 -1.3386,10.98097 -1.2936,-0.91474 -3.9762,-2.17603 -5.9617,-2.80323 l -3.6091,-1.13984 0.4427,-7.74699 c 0.4462,-7.7922 2.2792,-19.50596 3.0524,-19.50596 z m 247.51248,46.2579 c 2.37573,-0.0221 4.38101,0.11927 5.86757,0.44136 1.28039,0.27743 4.04069,1.36474 6.13263,2.41621 6.3449,3.18913 19.37869,11.95729 19.37869,13.03666 0,1.67709 -5.06376,6.05923 -9.90073,8.56741 -6.75729,3.5039 -14.13279,5.6459 -23.36156,6.7861 -1.47828,0.1826 -4.35048,-0.1036 -6.38318,-0.6362 -2.03263,-0.5327 -11.01528,-3.40173 -19.96053,-6.37522 -12.28157,-4.08248 -16.36027,-5.70968 -16.65777,-6.64689 -1.5773,-4.9697 5.2582,-10.21079 17.49938,-13.41706 9.79677,-2.566 20.25816,-4.10595 27.3855,-4.17237 z m -162.20688,11.0141 c 5.428,0.004 11.4193,0.74805 17.3562,2.18559 10.8085,2.61717 10.8829,2.66524 15.5416,10.19103 2.2534,3.64008 4.1019,7.28622 4.1088,8.10222 0.01,1.0471 -0.8486,1.988 -2.9159,3.1995 -3.591,2.1045 -18.677,7.8477 -26.5478,10.1062 -9.889,2.8376 -23.6955,4.3761 -29.3206,3.2684 -7.1945,-1.4167 -9.1418,-1.9609 -11.7855,-3.2949 -5.9914,-3.0233 -10.7761,-10.048 -9.7364,-14.2945 2.0438,-8.34705 17.2712,-16.31993 36.3055,-19.0076 2.1762,-0.30729 4.5268,-0.45795 6.9941,-0.45594 z m 155.4977,180.51864 c 3.42316,0.011 5.90639,0.3234 6.81253,0.9861 4.51531,3.3016 -7.49147,23.2014 -17.55758,29.1005 -4.24584,2.4882 -17.10915,7.4711 -23.40265,9.0644 -6.2152,1.5735 -24.3316,2.1902 -37.053,1.2618 -4.118,-0.3005 -8.5035,-0.7633 -9.7444,-1.0285 -3.5255,-0.7533 -15.9407,-6.1139 -21.4543,-9.2632 -6.4453,-3.6816 -23.4702,-18.1226 -23.4702,-19.9076 0,-1.2372 1.2477,-0.8129 4.8032,1.6329 5.5123,3.7918 9.4245,4.6306 21.4026,4.5872 16.0134,-0.058 23.569,-1.4198 70.2199,-12.6562 9.83394,-2.3687 21.91286,-3.8017 29.4439,-3.7774 z"
             style="mix-blend-mode:normal;fill:#373e5d;fill-opacity:1;stroke-width:0.61019"
             id="path894" />
        </g>
      </g>
    </g>
  </g>
</svg>
